<svg width="209" height="168" viewBox="0 0 209 168" fill="none" xmlns="http://www.w3.org/2000/svg">
<path d="M188.894 48.0849C187.858 48.4042 186.884 48.9907 185.941 49.5614C182.135 51.8494 178.383 54.2067 174.565 56.4855C167.873 60.483 161.178 64.4589 154.444 68.3964C153.284 69.0766 151.98 69.524 150.726 70.0856C154.378 67.5772 157.994 65.1294 161.57 62.6323C164.025 60.9203 164.168 60.5454 163.221 58.4752C159.624 61.1301 156.065 63.7461 152.508 66.373L152.136 65.8755C152.723 65.3576 153.335 64.8688 153.896 64.3216C156.026 62.2155 158.194 60.137 160.198 57.917C160.616 57.4572 160.383 56.4084 160.457 55.6349C159.828 55.8716 159.042 55.9329 158.597 56.3635C157.368 57.5404 156.348 58.9404 155.108 60.1189C153.277 61.8602 151.327 63.4751 149.429 65.1379C150.123 64.1509 150.943 63.2668 151.7 62.3367C153.888 59.6473 156.112 56.9747 158.176 54.1931C158.526 53.7212 158.108 52.689 158.05 51.9239C157.486 52.2175 156.758 52.3805 156.383 52.8339C155.295 54.1446 154.432 55.6318 153.333 56.9441C151.495 59.1617 149.544 61.2856 147.642 63.4463C147.663 62.6143 147.947 61.9973 148.278 61.3957C150.7 56.9253 153.195 52.4993 155.556 47.9936C158.756 41.9157 161.202 35.5184 163.248 28.9594C163.788 27.2325 164.443 25.5328 164.822 23.7635C165.161 22.1768 164.597 21.6525 163.178 21.6196C161.898 23.7987 160.712 25.9417 159.416 28.0127C157.287 31.4007 155.135 34.7811 152.909 38.1063C148.69 44.4013 144.674 50.8654 140.071 56.8747C135.894 62.3345 131.058 67.2952 126.533 72.4862C125.049 74.187 123.424 75.0798 121.068 74.2461C119.726 73.7706 118.229 73.738 116.814 73.4392C116.392 73.347 115.854 73.1503 115.652 72.8267C114.967 71.7122 114.403 70.5136 113.709 69.1904C113.849 68.9377 114.101 68.4802 114.353 68.012C115.604 65.7155 116.821 63.2583 115.9 60.6978C115.203 58.7561 115.377 57.393 116.757 56.039C116.979 55.8183 117.158 55.5375 117.315 55.2491C119.128 51.8194 121.272 48.4622 119.745 44.2672C119.65 44.0048 119.997 43.5113 120.239 43.1993C121.923 40.9933 123.793 38.9148 125.272 36.5847C126.813 34.1568 128.105 31.5338 127.579 28.4284C127.524 28.0607 127.982 27.4956 128.342 27.1659C130.095 25.5689 131.982 24.1288 133.645 22.4456C136.269 19.791 138.775 17.0104 141.257 14.2112C141.589 13.8415 141.715 12.9053 141.48 12.5091C141.244 12.1129 140.392 11.808 139.873 11.8849C137.925 12.1624 135.95 12.4107 134.083 13.0187C126.868 15.3475 119.623 17.6252 112.525 20.3013C107.794 22.0853 103.244 24.4282 98.7223 26.7338C96.1112 28.06 93.5803 29.6286 91.2733 31.4404C87.3106 34.5363 83.3079 37.6603 79.8022 41.2301C77.0273 44.0618 74.6353 47.3893 72.6707 50.8414C69.88 55.7313 67.0453 60.7713 68.1968 66.9783C58.8268 66.7745 50.5707 69.0916 45.1557 76.636C42.8303 76.6819 40.8338 76.635 38.863 76.7611C33.8933 77.0882 28.9273 77.5143 23.9624 77.8738C22.814 77.9555 22.2107 78.509 22.0432 79.617C20.6416 89.1092 19.2168 98.5938 17.8384 108.094C17.5383 110.172 18.5361 111.162 20.6031 111.088C23.0659 111 25.5383 110.976 27.9995 110.877C31.7469 110.731 35.4992 110.617 39.2366 110.329C41.3357 110.173 41.8809 109.451 42.0913 107.364C42.2015 106.243 42.256 105.118 42.3879 103.993C42.4263 103.656 42.5741 103.236 42.8221 103.045C43.6537 102.391 44.5523 101.816 45.5846 101.099C47.1508 104.36 49.8867 105.668 53.1783 106.175C53.6642 106.247 54.2005 106.51 54.5594 106.844C57.2677 109.383 60.4266 111.159 63.9104 112.367C65.9722 113.079 68.0889 113.638 70.5188 114.373C69.4083 115.532 68.6067 116.612 67.5732 117.395C64.3324 119.843 61.0091 122.181 57.7138 124.559C53.3401 127.716 51.7048 132.048 52.3487 137.291C52.9974 142.567 56.6522 145.75 60.6207 148.589C68.0361 153.879 76.3774 154.6 85.0601 153.148C90.3346 152.268 95.1168 150.078 99.8762 147.66C109.651 142.686 117.935 135.778 125.843 128.351C127.512 126.788 128.995 125.01 130.434 123.228C130.807 122.763 130.865 121.815 130.657 121.227C130.558 120.932 129.549 120.839 128.954 120.849C128.447 120.858 127.921 121.113 127.432 121.318C124.571 122.526 121.735 123.753 118.872 124.94C118.538 125.078 117.954 125.087 117.715 124.89C115.719 123.208 112.389 123.259 111.503 120.118C111.451 119.916 111.1 119.78 110.879 119.636C109.885 119.042 108.891 118.449 107.825 117.822C109.007 115.426 107.826 113.423 106.822 111.494C109.641 110.159 112.412 108.941 115.103 107.559C121.257 104.404 126.363 100 130.39 94.3525C131.314 93.055 132.098 91.48 133.351 90.6091C135.887 88.8519 138.722 87.5477 141.371 85.9507C147.681 82.1422 154.064 78.4447 160.204 74.3742C165.106 71.128 169.789 67.5274 174.374 63.853C178.8 60.3016 183.02 56.4822 187.256 52.6937C188.299 51.7543 189.185 50.573 189.925 49.3693C190.441 48.5301 189.933 47.7874 188.91 48.1158L188.894 48.0849Z" fill="#FFB3DB"></path>
<path d="M84.7802 157.975C74.1266 159.553 65.3143 157.742 57.8741 152.433C53.0784 149.009 48.5095 144.878 47.6585 137.863C46.7899 130.73 49.3046 124.798 54.9462 120.724C55.8752 120.056 56.8041 119.388 57.7223 118.721C58.8115 117.941 59.93 117.134 61.0392 116.34C57.519 114.96 54.4321 113.074 51.8192 110.731C49.8752 110.367 48.1495 109.76 46.6638 108.908C45.9518 112.683 43.5827 114.747 39.6149 115.048C36.4555 115.283 33.2801 115.411 30.202 115.524L28.2015 115.6C26.8503 115.656 25.4943 115.68 24.14 115.715C23.0268 115.736 21.9043 115.77 20.7819 115.803C17.6265 115.917 15.7875 114.62 14.7937 113.507C13.8015 112.405 12.7276 110.453 13.1695 107.392C14.1805 100.411 15.2238 93.4261 16.258 86.4531L17.3835 78.9029C17.8768 75.5913 20.2683 73.3802 23.6472 73.134C25.7912 72.9822 27.9335 72.8197 30.0742 72.6464C32.9043 72.4261 35.7345 72.2059 38.5694 72.0181C40.0147 71.9256 41.3939 71.9094 42.8628 71.9018C47.763 66.1801 54.4933 63.0389 63.3005 62.3534C63.7842 56.8879 66.391 52.3238 68.5839 48.4731C70.9011 44.4161 73.5454 40.8522 76.4558 37.89C80.1445 34.1382 84.2534 30.91 88.2469 27.7985L88.3963 27.688C90.8328 25.7797 93.5916 24.0337 96.6129 22.4919L96.9013 22.3496C101.381 20.0613 106.018 17.7056 110.894 15.8559C117.101 13.5107 123.474 11.4616 129.624 9.47854L132.662 8.49805C134.803 7.80512 136.981 7.50483 138.897 7.23211L139.243 7.18085C141.366 6.8885 144.219 7.79231 145.577 10.1001C146.846 12.2445 146.509 15.4222 144.814 17.3313C142.398 20.0544 139.789 22.961 137.03 25.7462C135.867 26.9242 134.66 27.954 133.491 28.945C133.148 29.239 132.794 29.5347 132.452 29.8395C132.443 33.5878 130.805 36.7042 129.291 39.0948C128.162 40.8758 126.891 42.4457 125.67 43.975C125.4 44.3135 125.118 44.6537 124.848 44.9921C125.653 49.7583 123.566 53.6486 121.971 56.6148L121.53 57.4429C121.195 58.0894 120.811 58.6325 120.395 59.1032C121.805 63.0282 120.415 66.6274 119.21 69.0165C120.238 69.1627 121.401 69.333 122.625 69.7597C122.713 69.6804 122.837 69.5513 122.999 69.3727C124.464 67.6967 125.954 66.0391 127.456 64.3908C130.628 60.8814 133.618 57.5647 136.351 53.9988C139.647 49.6863 142.732 44.996 145.707 40.4547C146.798 38.7899 147.9 37.1236 149.014 35.4664C151.421 31.8712 153.715 28.2488 155.449 25.4829C156.299 24.1301 157.099 22.7406 157.943 21.2781C158.34 20.6003 158.725 19.9132 159.131 19.223C160.005 17.7341 161.608 16.8446 163.328 16.8883C165.547 16.9464 167.265 17.7201 168.423 19.1954C169.226 20.215 170.067 22.0135 169.478 24.7535C169.158 26.2489 168.707 27.6088 168.261 28.9239C168.099 29.401 167.938 29.8781 167.789 30.3644C165.714 37.0272 163.435 42.836 160.851 48.0712C161.953 48.8696 162.656 50.1138 162.782 51.4878C162.987 51.6011 163.183 51.7269 163.37 51.8759C164.119 52.4503 164.652 53.2116 164.945 54.0744C165.731 54.3781 166.414 54.8848 166.941 55.5362C168.648 54.5208 170.385 53.4897 172.161 52.4199C174.211 51.1877 176.258 49.9341 178.294 48.6819C180.027 47.6184 181.77 46.5533 183.515 45.499C184.58 44.8549 185.9 44.0626 187.495 43.5612C189.852 42.8362 192.288 43.5365 193.708 45.36C195.127 47.1835 195.225 49.7112 193.954 51.8005C192.861 53.5983 191.692 55.0316 190.405 56.1948L189.038 57.4142C185.27 60.7797 181.376 64.2634 177.326 67.516C173.464 70.6191 168.323 74.6413 162.807 78.2988C157.987 81.4997 152.969 84.4866 148.127 87.3923C146.686 88.2579 145.243 89.1127 143.803 89.9891C142.677 90.6645 141.563 91.2825 140.467 91.8649C138.871 92.7313 137.368 93.5507 136.035 94.4776C135.839 94.6503 135.362 95.3841 135.046 95.862C134.776 96.2778 134.506 96.6936 134.231 97.0769C129.782 103.307 124.08 108.241 117.26 111.749C115.801 112.495 114.314 113.202 112.846 113.884C112.94 114.367 113.013 114.865 113.036 115.392C113.132 115.444 113.23 115.507 113.315 115.561C113.821 115.84 115.382 116.68 116.003 118.633C116.27 118.793 116.791 119.025 117.156 119.181C117.617 119.378 118.125 119.601 118.663 119.875C119.911 119.348 121.159 118.82 122.397 118.294C123.457 117.839 124.528 117.382 125.6 116.936L125.736 116.882C126.39 116.597 127.482 116.137 128.858 116.099C133.221 116.006 134.654 118.291 135.134 119.668C135.769 121.487 135.696 124.205 134.13 126.173C132.646 128.017 131.014 129.983 129.083 131.795C121.844 138.592 112.96 146.297 102.026 151.873C97.4528 154.208 92.0524 156.777 85.8401 157.818C85.4832 157.871 85.1371 157.923 84.7802 157.975ZM44.9125 96.4123C45.5398 96.3194 46.1864 96.3562 46.8181 96.5169C48.1528 96.8718 49.274 97.8001 49.868 99.0496C50.4448 100.257 51.3305 101.088 53.921 101.489C55.3463 101.709 56.7755 102.403 57.8182 103.399C59.8988 105.356 62.4036 106.82 65.4692 107.891C66.7518 108.342 68.1362 108.734 69.5919 109.16C70.3306 109.371 71.0925 109.59 71.8792 109.827C73.4527 110.301 74.6777 111.557 75.091 113.153C75.5151 114.749 75.0692 116.439 73.9311 117.636C73.6158 117.97 73.3222 118.301 73.0362 118.608C72.2782 119.461 71.4803 120.342 70.4175 121.152C68.0316 122.953 65.5943 124.707 63.2264 126.406C62.3067 127.061 61.3885 127.728 60.4796 128.382C57.6434 130.427 56.5773 133.006 57.0386 136.717C57.4263 139.932 59.6579 142.088 63.3547 144.735C68.9651 148.734 75.6172 149.915 84.269 148.479C88.6582 147.741 92.8223 145.93 97.7144 143.437C105.165 139.637 111.686 134.636 117.34 129.676C116.401 129.528 115.474 129.168 114.667 128.492C114.477 128.332 113.816 128.043 113.379 127.853C111.843 127.186 109.196 126.03 107.674 123.216C107.201 122.932 106.717 122.65 106.22 122.359L105.397 121.873C103.264 120.608 102.469 117.93 103.567 115.711C103.492 115.358 103.072 114.536 102.778 113.971L102.61 113.653C102.021 112.514 101.912 111.181 102.317 109.961C102.722 108.74 103.614 107.746 104.782 107.197C105.681 106.777 106.569 106.358 107.46 105.95C109.363 105.071 111.163 104.241 112.929 103.327C118.382 100.519 122.959 96.569 126.521 91.5871C126.722 91.3031 126.911 91.0099 127.11 90.7151C127.93 89.4553 128.947 87.8898 130.629 86.7121C132.393 85.4892 134.193 84.5044 135.941 83.549C136.985 82.9855 137.966 82.4423 138.909 81.8715C140.36 80.9935 141.812 80.1263 143.264 79.2591C145.701 77.8038 148.179 76.3205 150.651 74.8048C149.021 74.7699 147.455 73.8966 146.601 72.3872C145.927 71.1938 145.834 69.815 146.229 68.6069C145.897 68.3024 145.624 67.9559 145.394 67.5921C143.843 66.7497 142.87 65.1033 142.913 63.3063C142.955 61.8742 143.348 60.7217 143.767 59.8196C140.823 63.6711 137.574 67.2582 134.431 70.7411C132.978 72.349 131.516 73.9692 130.088 75.5955C126.319 79.9229 122.248 79.6748 119.496 78.7117C119.1 78.5715 118.445 78.4805 117.757 78.3835C117.181 78.303 116.527 78.2121 115.842 78.0703C113.983 77.6825 112.491 76.7097 111.633 75.3225C111.036 74.3498 110.538 73.3737 110.057 72.4391C109.885 72.0998 109.711 71.7497 109.527 71.4011C108.788 69.9963 108.806 68.3246 109.563 66.9414L110.197 65.7754C110.718 64.814 111.701 63.0214 111.443 62.3191C110.13 58.6782 110.723 55.5177 113.191 52.9304L113.598 52.1738C115.279 49.0401 115.905 47.5987 115.29 45.9102C114.627 44.1184 115.024 42.2469 116.457 40.3546C117.039 39.5831 117.646 38.8301 118.264 38.0754C119.375 36.6951 120.421 35.4015 121.263 34.072C122.679 31.8396 123.127 30.5354 122.9 29.2315C122.567 27.2803 123.369 25.3045 125.142 23.6935C125.853 23.0465 126.589 22.4181 127.314 21.7912C128.325 20.934 129.277 20.1189 130.125 19.2749C124.819 20.9892 119.402 22.7752 114.189 24.7411C109.792 26.3981 105.404 28.6396 101.149 30.8062L100.862 30.9592C98.3855 32.2213 96.1414 33.6368 94.1809 35.1762L94.0315 35.2868C90.2875 38.2178 86.4141 41.2451 83.1685 44.5554C80.835 46.9348 78.679 49.8406 76.7665 53.1967C74.3099 57.5064 71.9836 61.5758 72.8342 66.1252C73.0966 67.5233 72.7128 68.9618 71.7906 70.0489C70.8684 71.1361 69.5108 71.7461 68.0803 71.7148C58.9655 71.5174 52.895 73.964 48.9923 79.4053C48.1218 80.6175 46.7385 81.3529 45.2388 81.3761C44.4672 81.3909 43.7265 81.39 43.0091 81.3968C41.5958 81.4072 40.3588 81.4135 39.1763 81.4891C36.3738 81.6721 33.5762 81.8876 30.7801 82.1138C29.3272 82.2295 27.8618 82.336 26.4089 82.4517L25.5987 87.8772C24.684 94.0145 23.7708 100.163 22.8793 106.307C23.221 106.301 23.5627 106.295 23.9044 106.288C25.2047 106.261 26.5034 106.224 27.8113 106.174L29.8226 106.097C32.3395 106.001 34.9445 105.902 37.4842 105.736C37.4794 105.704 37.4854 105.669 37.4914 105.635C37.5495 104.908 37.6076 104.181 37.6982 103.449C37.8937 101.785 38.7009 100.294 39.8991 99.3544C40.6214 98.7832 41.3348 98.3017 42.0775 97.7938C42.3379 97.6115 42.6091 97.4276 42.8895 97.2314C43.4904 96.8108 44.1802 96.5429 44.8941 96.4371L44.9125 96.4123ZM117.071 120.542C117.071 120.542 117.06 120.544 117.049 120.545C117.049 120.545 117.06 120.544 117.071 120.542ZM113.465 52.6909C113.465 52.6909 113.465 52.6909 113.456 52.7033C113.456 52.7033 113.456 52.7033 113.465 52.6909ZM124.202 42.645C124.202 42.645 124.208 42.6883 124.221 42.6975C124.217 42.6759 124.214 42.6542 124.202 42.645Z" fill="white"></path>
<path d="M45.5937 101.087C47.1599 104.347 49.8958 105.656 53.1874 106.163C53.6733 106.235 54.2097 106.498 54.5686 106.831C57.2768 109.37 60.4358 111.146 63.9196 112.355C65.9814 113.066 68.098 113.626 70.5279 114.36C69.4175 115.519 68.6159 116.6 67.5823 117.383C64.3415 119.83 61.0182 122.168 57.7229 124.547C53.3492 127.703 51.7139 132.035 52.3578 137.278C53.0082 142.565 56.6614 145.738 60.6299 148.576C68.0452 153.867 76.3865 154.588 85.0692 153.136C90.3437 152.255 95.126 150.066 99.8854 147.648C109.659 142.663 117.944 135.766 125.852 128.339C127.522 126.776 129.015 124.996 130.443 123.215C130.816 122.751 130.864 121.805 130.666 121.215C130.567 120.92 129.558 120.826 128.963 120.837C128.456 120.846 127.93 121.1 127.441 121.306C124.58 122.514 121.744 123.741 118.881 124.928C118.547 125.066 117.963 125.075 117.724 124.878C115.728 123.195 112.398 123.246 111.513 120.106C111.46 119.903 111.109 119.768 110.888 119.623C109.894 119.03 108.9 118.437 107.834 117.81C109.016 115.413 107.835 113.411 106.831 111.481C109.651 110.146 112.421 108.929 115.113 107.547C121.266 104.392 126.372 99.9877 130.399 94.3401C131.324 93.0426 132.107 91.4676 133.36 90.5967C135.896 88.8395 138.731 87.5353 141.38 85.9382C147.691 82.1297 154.073 78.4323 160.213 74.3618C165.115 71.1156 169.798 67.515 174.383 63.8406C178.809 60.2892 183.029 56.4698 187.265 52.6813C188.308 51.7419 189.195 50.5606 189.934 49.3569C190.45 48.5177 189.943 47.775 188.919 48.1034C187.883 48.4226 186.909 49.0091 185.965 49.5799C182.159 51.8679 178.408 54.2252 174.589 56.5039C167.898 60.5015 161.192 64.479 154.469 68.4149C153.309 69.095 152.005 69.5425 150.751 70.104C154.402 67.5957 158.019 65.1478 161.595 62.6507C164.05 60.9387 164.193 60.5639 163.245 58.4937C159.648 61.1486 156.09 63.7646 152.533 66.3915C152.408 66.222 152.285 66.0634 152.161 65.894C152.747 65.376 153.36 64.8873 153.92 64.3401C156.051 62.2339 158.219 60.1554 160.223 57.9355C160.641 57.4756 160.408 56.4269 160.481 55.6533C159.853 55.8901 159.067 55.9514 158.622 56.382C157.392 57.5588 156.373 58.9588 155.133 60.1372C153.301 61.8785 151.352 63.4936 149.454 65.1564C150.148 64.1693 150.968 63.2853 151.725 62.3552C153.913 59.6658 156.137 56.9931 158.201 54.2116C158.551 53.7397 158.133 52.7074 158.075 51.9423C157.51 52.2359 156.783 52.3989 156.408 52.8524C155.32 54.163 154.457 55.6503 153.358 56.9626C151.52 59.1801 149.569 61.3039 147.667 63.4646C147.688 62.6326 147.972 62.0158 148.303 61.4142C150.725 56.9437 153.219 52.5178 155.581 48.0121C158.781 41.9342 161.227 35.5369 163.273 28.9778C163.813 27.2509 164.467 25.5513 164.847 23.7819C165.186 22.1953 164.622 21.6708 163.203 21.6379C161.923 23.8171 160.737 25.9602 159.441 28.0311C157.312 31.4192 155.16 34.7996 152.933 38.1248C148.715 44.4198 144.699 50.8838 140.097 56.904C135.921 62.3638 131.085 67.3244 126.559 72.5154C125.076 74.2162 123.449 75.0983 121.094 74.2754C119.742 73.8015 118.256 73.7673 116.841 73.4684C116.418 73.3763 115.881 73.1796 115.678 72.856C114.993 71.7415 114.429 70.5429 113.736 69.2197C113.875 68.967 114.128 68.5095 114.379 68.0413C115.631 65.7448 116.847 63.2876 115.926 60.7271C115.23 58.7854 115.404 57.4223 116.784 56.0683C117.005 55.8476 117.185 55.5668 117.341 55.2784C119.154 51.8487 121.299 48.4915 119.771 44.2965C119.677 44.0341 120.024 43.5406 120.265 43.2286C121.939 41.0242 123.819 38.9441 125.298 36.614C126.84 34.1861 128.131 31.5631 127.605 28.4577C127.551 28.09 128.008 27.5249 128.369 27.1952C130.122 25.5982 132.008 24.1581 133.671 22.4749C136.296 19.8203 138.802 17.0395 141.283 14.2403C141.615 13.8706 141.742 12.9346 141.506 12.5384C141.271 12.1422 140.419 11.8373 139.899 11.9142C137.951 12.1917 135.976 12.44 134.11 13.048C126.894 15.3767 119.639 17.6561 112.552 20.3306C107.82 22.1146 103.271 24.4574 98.7487 26.763C96.1376 28.0892 93.6067 29.6578 91.2996 31.4695C87.337 34.5655 83.3342 37.6896 79.8286 41.2594C77.0537 44.091 74.6617 47.4186 72.6971 50.8707C69.9064 55.7605 67.0717 60.8006 68.2231 67.0076C58.8531 66.8038 50.597 69.1209 45.1821 76.6653C42.8567 76.7112 40.8602 76.6643 38.8893 76.7904C33.9197 77.1175 28.9536 77.5434 23.9888 77.903C22.8403 77.9846 22.237 78.5383 22.0695 79.6463C20.6679 89.1385 19.2431 98.6229 17.8647 108.123C17.5646 110.201 18.5625 111.192 20.6295 111.118C23.0923 111.029 25.5646 111.006 28.0258 110.906C31.7733 110.76 35.5255 110.647 39.263 110.358C41.3621 110.202 41.9073 109.48 42.1177 107.393C42.2279 106.272 42.2824 105.147 42.4142 104.023C42.4527 103.685 42.6005 103.265 42.8485 103.074C43.6801 102.42 44.5786 101.845 45.611 101.128L45.5937 101.087Z" fill="#FFB3DB"></path>
<path d="M45.594 101.087C44.5617 101.804 43.6632 102.379 42.8315 103.033C42.5836 103.224 42.4373 103.655 42.3973 103.981C42.2638 105.095 42.2109 106.231 42.1007 107.352C41.8903 109.439 41.3451 110.161 39.246 110.317C35.507 110.595 31.7547 110.708 28.0089 110.865C25.5477 110.964 23.0753 110.988 20.6125 111.076C18.5455 111.15 17.5369 110.161 17.8478 108.082C19.2262 98.5818 20.651 89.0972 22.0526 79.6051C22.2201 78.497 22.8234 77.9435 23.9719 77.8618C28.9383 77.5131 33.9043 77.0871 38.8724 76.7492C40.8541 76.6215 42.8381 76.6592 45.1651 76.624C50.5801 69.0796 58.8362 66.7625 68.2062 66.9664C67.0548 60.7593 69.8895 55.7193 72.6801 50.8295C74.6447 47.3773 77.0475 44.0482 79.8116 41.2182C83.3157 37.6375 87.32 34.5244 91.2827 31.4284C93.5913 29.6275 96.1223 28.0589 98.7317 26.7219C103.254 24.4163 107.794 22.0859 112.535 20.2895C119.622 17.615 126.877 15.3355 134.093 13.0068C135.95 12.4112 137.934 12.1505 139.883 11.873C140.402 11.7961 141.254 12.101 141.489 12.4972C141.725 12.8933 141.597 13.8187 141.266 14.1992C138.785 16.9984 136.277 19.7683 133.654 22.4337C131.991 24.1168 130.105 25.5569 128.352 27.154C127.991 27.4836 127.532 28.0381 127.588 28.4166C128.114 31.522 126.823 34.1449 125.281 36.5728C123.803 38.9029 121.922 40.9831 120.248 43.1874C120.007 43.4995 119.66 43.9929 119.754 44.2553C121.293 48.4486 119.137 51.8074 117.324 55.2371C117.179 55.524 116.999 55.8048 116.767 56.0271C115.378 57.3934 115.202 58.7459 115.909 60.6859C116.83 63.2465 115.615 65.7143 114.362 68C114.111 68.4683 113.858 68.9257 113.719 69.1785C114.412 70.5016 114.975 71.6894 115.661 72.8147C115.864 73.1384 116.401 73.3351 116.824 73.4272C118.239 73.7261 119.736 73.7586 121.077 74.2342C123.432 75.0571 125.059 74.1751 126.542 72.4742C131.068 67.2833 135.904 62.3226 140.08 56.8628C144.671 50.8442 148.689 44.3909 152.916 38.0835C155.143 34.7584 157.295 31.3781 159.424 27.99C160.72 25.919 161.907 23.7868 163.186 21.5968C164.605 21.6297 165.169 22.154 164.83 23.7407C164.449 25.4992 163.796 27.2098 163.256 28.9367C161.21 35.4958 158.764 41.8929 155.564 47.9709C153.201 52.4657 150.708 56.9025 148.286 61.3729C147.966 61.973 147.669 62.5807 147.65 63.4235C149.552 61.2628 151.502 59.1282 153.341 56.9214C154.429 55.6108 155.303 54.1218 156.391 52.8111C156.766 52.3577 157.493 52.1947 158.058 51.9011C158.118 52.677 158.534 53.6985 158.184 54.1703C156.122 56.9627 153.896 59.6245 151.708 62.3139C150.951 63.2441 150.131 64.1282 149.437 65.1152C151.335 63.4525 153.285 61.8374 155.116 60.0961C156.358 58.9285 157.365 57.5192 158.605 56.3407C159.05 55.9101 159.836 55.8488 160.464 55.6121C160.391 56.3856 160.624 57.4344 160.206 57.8942C158.202 60.1142 156.034 62.1928 153.903 64.299C153.343 64.8462 152.73 65.3348 152.144 65.8527C152.269 66.0222 152.391 66.1808 152.516 66.3502C156.073 63.7234 159.631 61.1073 163.228 58.4524C164.174 60.5118 164.033 60.8976 161.578 62.6096C158.002 65.1067 154.386 67.5545 150.734 70.0628C151.999 69.4996 153.292 69.0539 154.452 68.3738C161.175 64.4379 167.881 60.4603 174.573 56.4627C178.38 54.1855 182.142 51.8267 185.949 49.5387C186.892 48.9679 187.868 48.3923 188.902 48.0623C189.916 47.7463 190.423 48.478 189.917 49.3156C189.178 50.5194 188.304 51.7099 187.248 52.64C183.012 56.4286 178.803 60.2463 174.366 63.7994C169.783 67.4845 165.098 71.0744 160.196 74.3205C154.056 78.391 147.674 82.0886 141.363 85.8971C138.714 87.4942 135.868 88.8 133.343 90.5556C132.09 91.4264 131.317 92.9999 130.382 94.299C126.356 99.9466 121.249 104.35 115.096 107.506C112.405 108.888 109.634 110.105 106.814 111.44C107.818 113.369 108.999 115.372 107.818 117.769C108.883 118.396 109.877 118.989 110.871 119.582C111.103 119.725 111.444 119.862 111.496 120.064C112.381 123.205 115.711 123.154 117.707 124.837C117.946 125.034 118.53 125.024 118.864 124.887C121.729 123.711 124.574 122.471 127.424 121.264C127.913 121.059 128.439 120.805 128.946 120.796C129.541 120.785 130.548 120.868 130.649 121.174C130.847 121.763 130.799 122.71 130.426 123.174C128.989 124.968 127.505 126.735 125.835 128.297C117.927 135.725 109.643 142.633 99.8684 147.607C95.109 150.025 90.3268 152.214 85.0523 153.095C76.3696 154.547 68.0267 153.815 60.6129 148.535C56.646 145.707 52.9912 142.524 52.3409 137.237C51.697 131.994 53.3431 127.661 57.706 124.505C61.0013 122.127 64.3246 119.789 67.5654 117.342C68.5989 116.559 69.4005 115.478 70.511 114.319C68.0827 113.595 65.966 113.036 63.9026 112.313C60.4296 111.104 57.2615 109.34 54.5517 106.79C54.1927 106.457 53.6564 106.193 53.1705 106.122C49.8897 105.613 47.143 104.306 45.5768 101.046L45.594 101.087ZM47.2481 99.7922C48.8279 102.697 51.3407 103.917 54.6235 103.917C58.6685 103.915 61.6013 101.701 62.6373 97.8003C62.7527 97.3853 63.2583 97.0672 63.5812 96.7099C63.9036 97.1706 64.4672 97.6177 64.4944 98.1C64.6193 100.137 63.6695 101.859 62.4092 103.35C61.7991 104.081 61.8668 104.613 62.285 105.346C63.3148 107.15 64.8165 108.409 66.6411 109.31C72.6017 112.241 78.9757 113.187 85.5257 113.156C92.4173 113.119 99.0017 111.381 105.429 109.103C110.815 107.189 116.005 104.762 120.579 101.244C126.532 96.6598 130.783 90.7358 133.734 83.8659C134.541 82 135.11 80.0255 135.938 77.7034C135.168 78.1047 134.866 78.2269 134.604 78.3983C134.279 78.5902 133.995 78.8422 133.669 79.0232C123.427 84.6518 112.728 88.7566 100.873 89.2413C100.379 89.2593 99.8906 89.6962 99.4111 89.9662C97.4823 91.0477 95.68 92.6853 93.6118 93.1243C87.4287 94.438 82.4067 91.7995 78.1755 87.4854C76.3273 85.6038 73.7344 84.7388 71.3192 85.6713C70.7235 85.9032 70.0409 86.6675 69.9219 87.282C69.129 91.5554 64.8467 95.0304 60.4311 94.8443C57.5296 94.7324 55.2848 93.3075 53.4747 91.3097C51.3955 94.1377 49.3609 96.8928 47.2357 99.783L47.2481 99.7922ZM78.4563 78.9331C80.1371 78.3415 80.9383 77.1837 81.5465 75.7673C81.7604 75.2714 82.2519 74.6349 82.723 74.532C87.4183 73.4718 91.2104 68.7763 91.6596 63.5259C91.8709 60.9966 90.7172 59.178 88.7997 57.6493C88.174 57.1562 87.6453 56.2727 87.5315 55.5048C87.4835 55.1803 88.5979 54.4958 89.2757 54.2959C93.8676 52.9858 96.6787 49.9499 97.9234 45.4438C98.1193 44.7516 97.8898 43.7245 97.4801 43.122C96.5267 41.76 96.5512 41.1042 98.0522 40.4177C103.728 37.8417 107.678 33.6202 109.881 27.8227C110.327 26.6514 110.326 25.3031 110.525 24.0356C110.342 23.919 110.17 23.8009 109.987 23.6843C106.558 25.3858 103.039 26.9238 99.7183 28.8305C96.163 30.8713 92.627 33.042 89.3974 35.5652C85.4732 38.6223 81.7064 41.9213 78.7151 45.9787C75.0327 50.9674 71.9488 56.2654 70.4168 62.3393C69.5394 65.8184 70.2788 67.0794 73.5351 68.244C76.9897 69.4788 80.4742 73.2292 78.6169 77.7044C78.4887 78.0329 78.5124 78.4162 78.4378 78.9578L78.4563 78.9331ZM88.2899 150.029C87.5576 149.562 87.0918 149.178 86.5602 148.948C82.4507 147.246 78.4357 145.288 73.8759 145.023C73.3856 144.997 72.8144 144.573 72.4891 144.168C72.3678 144.02 72.7504 143.245 73.0801 143.008C74.1476 142.231 74.2935 141.126 74.2042 140.001C73.9872 137.192 72.5299 134.965 70.211 133.563C68.7545 132.684 66.9026 132.494 65.2575 131.909C64.6037 131.674 64.0385 131.216 63.4212 130.854C63.9556 130.433 64.432 129.843 65.04 129.62C65.8781 129.308 66.8082 129.17 67.7047 129.104C72.9584 128.679 77.0292 126.164 80.1299 122.024C81.4859 120.21 82.5676 118.259 81.9043 115.87C79.0514 115.563 76.3374 115.225 73.6179 114.997C73.1027 114.952 72.4454 115.215 72.0436 115.562C70.335 117.086 68.8115 118.815 67.0313 120.228C63.9359 122.687 60.6366 124.889 57.5552 127.368C55.1052 129.334 54.209 132.164 54.2093 135.225C54.2167 141.171 58.2596 144.363 62.6519 147.227C67.2877 150.243 72.4845 151.375 77.9404 151.495C81.3782 151.572 84.7835 151.355 88.2807 150.041L88.2899 150.029ZM25.0081 80.0074C26.6007 83.5958 28.1159 86.8863 29.497 90.2408C29.8399 91.0632 30.1134 92.2385 29.7893 92.9608C28.2113 96.4109 26.3946 99.7417 24.6879 103.145C23.8431 104.828 23.0803 106.544 22.1196 108.565C27.775 108.391 33.0703 108.248 38.3637 108.016C38.8027 107.995 39.5466 107.421 39.6003 107.037C39.9966 104.116 40.1112 101.159 40.6097 98.2553C40.9098 96.4755 39.9608 96.2624 38.7046 95.8405C36.8427 95.21 34.9913 94.5004 33.2532 93.5862C32.0779 92.9645 31.9273 91.9477 32.9512 90.8013C35.7987 87.6384 39.1637 85.2832 43.3282 83.8485C43.3651 82.9035 43.2902 81.8756 43.4661 80.899C43.7906 79.0603 43.6905 78.832 41.7597 78.93C39.3033 79.0617 36.8505 79.2924 34.3881 79.4581C31.3553 79.6531 28.3177 79.8156 24.9957 79.9981L25.0081 80.0074ZM45.5442 82.9897C45.4525 84.385 46.018 85.2185 46.9373 85.9776C49.7666 88.2887 52.4914 87.1336 55.0784 85.6451C58.7955 83.5029 62.561 81.7625 67.0227 82.1849C68.0654 82.2847 69.181 82.1305 70.2174 81.8886C72.4723 81.3667 74.7356 80.6778 75.8962 78.439C76.8853 76.5351 77.3412 74.3896 76.0878 73.0167C74.2312 71.0037 68.7044 70.3301 66.4226 71.9392C65.5013 72.5841 65.099 73.4506 66.0199 74.5189C67.3158 76.0292 69.6944 76.4175 71.7478 75.5054C72.2462 75.2879 72.9103 75.4437 73.4948 75.4345C73.4018 76.0009 73.4158 76.6178 73.1927 77.1261C73.0184 77.5167 72.5621 77.7943 72.2204 78.0991C70.0945 79.9393 67.4907 79.9713 64.9245 79.8098C61.1751 79.5693 57.8699 80.6115 54.8097 82.7117C51.8698 84.7277 48.8325 85.5643 45.5458 83.0004L45.5442 82.9897ZM100.514 43.4575C113.982 34.9857 127.203 26.3403 138.509 14.5412C136.385 14.5243 135.204 15.2077 133.875 16.3881C130.552 19.3231 126.977 21.9748 123.396 24.5941C119.206 27.6464 114.902 30.5276 110.656 33.4997C109.655 34.2007 108.495 34.8036 107.795 35.7473C105.718 38.5197 102.982 40.4172 99.9802 42.166C100.168 42.6134 100.331 43.0425 100.517 43.4791L100.514 43.4575ZM125.503 30.0076C123.248 30.6841 121.614 32.4847 120.798 34.0645C120.042 35.525 119.216 37.04 118.068 38.1716C115.785 40.444 113.299 42.5365 110.818 44.595C106.213 48.4272 101.397 51.959 96.1645 54.9115C94.8386 55.6605 93.5875 56.5423 92.2251 57.4183C92.5788 57.9407 92.864 58.3737 93.2301 58.9053C94.9494 57.9764 96.6728 57.2237 98.2106 56.1891C104 52.292 109.816 48.4242 115.465 44.3268C119.218 41.6046 122.185 38.0592 124.239 33.8644C124.834 32.6599 125.096 31.2946 125.512 29.9951L125.503 30.0076ZM81.6004 79.6389C81.5347 79.7924 81.4706 79.9566 81.4049 80.11C81.7871 80.4514 82.1263 80.8763 82.5605 81.1215C84.6091 82.266 86.5771 83.6878 88.7719 84.4018C96.4838 86.9181 103.973 87.3342 110.565 81.3177C112.872 79.2075 113.248 76.5212 113.252 73.7131C113.25 73.1054 112.405 72.1031 111.786 71.9517C110.848 71.7369 109.049 74.3687 109.225 75.4038C109.611 77.712 108.796 79.6011 106.865 80.7383C103.997 82.423 100.932 83.4408 97.5803 83.3513C92.4985 83.2198 87.5994 82.2321 83.006 79.9502C82.5874 79.7359 82.0679 79.7355 81.588 79.6297L81.6004 79.6389ZM124.853 125.547C124.753 125.396 124.653 125.245 124.564 125.092C110.298 131.085 96.1182 137.286 82.2493 144.468C84.2377 146.55 85.8798 145.323 87.4252 144.564C92.0709 142.273 96.6212 139.787 101.303 137.59C106.376 135.203 111.547 133.022 116.702 130.811C118.093 130.207 119.738 130.041 120.966 129.229C122.425 128.261 123.581 126.807 124.854 125.558L124.853 125.547ZM76.0934 137.533C76.7248 137.317 77.3425 137.16 77.9365 136.917C85.9691 133.539 94.0943 130.412 102.625 128.53C105.215 127.958 107.941 127.256 110.51 127.517C112.542 127.724 113.723 126.82 115.258 126.062C114.245 125.571 113.197 124.985 112.228 125.085C107.776 125.545 103.198 125.682 98.9331 126.888C92.4295 128.724 86.1355 131.303 79.7845 133.648C78.2643 134.205 76.8462 135.078 75.4966 135.742C75.5251 136.158 75.4994 136.283 75.5447 136.365C75.7229 136.747 75.912 137.128 76.1058 137.542L76.0934 137.533ZM85.1132 76.5655C85.5266 76.67 85.9264 76.8318 86.3378 76.8482C92.8989 77.1918 99.2898 76.61 105.225 73.476C109.674 71.126 112.703 67.6931 113.609 62.6182C113.733 61.9588 113.594 61.2498 113.58 60.5556C113.403 60.4823 113.228 60.4198 113.052 60.3465C112.387 60.9313 111.784 61.6395 111.03 62.0717C109.951 62.6958 109.456 63.4544 109.393 64.7459C109.292 66.8277 107.903 68.3487 106.406 69.51C102.056 72.8955 96.8604 74.1623 91.5206 74.9753C89.3791 75.2925 86.9508 74.2706 85.11 76.5438L85.1132 76.5655ZM93.6993 67.446C93.9172 67.4248 94.0718 67.424 94.234 67.4C102.616 65.7828 109.438 61.5449 114.596 54.8013C116.513 52.2958 117.703 49.2898 117.582 45.8592C116.162 47.02 114.757 48.2009 113.731 49.6349C112.231 51.7472 111.311 54.3373 109.574 56.1971C105.616 60.442 100.505 63.1 95.1755 65.249C94.1432 65.6671 93.5379 66.1325 93.7085 67.4336L93.6993 67.446ZM44.1257 85.8746C40.6401 87.3414 37.546 89.1371 34.9417 92.0761C39.0155 93.7607 42.8675 94.6934 46.9523 93.9889C49.1074 93.6144 50.9922 91.4895 50.8854 89.6484C48.2487 89.3094 45.7403 88.6419 44.1257 85.8746ZM110.557 122.458C109.83 121.803 109.471 121.249 108.982 121.078C106.627 120.255 104.288 119.165 101.853 118.84C95.9559 118.055 90.2988 119.711 84.6533 121.222C82.5686 121.774 81.8031 123.545 80.4839 125.31C81.0535 125.126 81.2899 125.08 81.5182 124.98C87.2919 122.544 93.2678 120.951 99.5662 121.013C101.648 121.037 103.907 120.768 105.58 122.588C105.753 122.783 106.152 122.868 106.426 122.849C107.641 122.769 108.848 122.634 110.548 122.471L110.557 122.458ZM20.7261 104.605C20.9352 104.673 21.1335 104.743 21.3442 104.822C23.429 100.689 25.5138 96.5562 27.5878 92.4247C27.6995 92.2092 27.7953 91.8856 27.7216 91.6865C26.5941 88.9244 25.4248 86.1796 24.2773 83.4315L23.7906 83.5036C22.7768 90.5398 21.7523 97.5777 20.7386 104.614L20.7261 104.605ZM131.37 77.7608C125.917 77.1317 120.723 76.5415 115.561 75.9464C115.232 77.4542 114.919 78.849 114.556 80.4281C120.615 82.6035 125.864 80.0576 131.369 77.75L131.37 77.7608ZM56.5825 87.6661C54.574 88.5826 54.4565 89.5063 56.0825 90.8571C59.6884 93.86 65.5402 92.4738 67.2388 88.1215C67.5441 87.3468 67.4163 86.2605 67.1275 85.4301C66.707 84.2323 65.4327 84.211 64.5266 84.511C63.6529 84.8062 62.9599 85.6494 62.1867 86.2502C62.2833 86.3796 62.3814 86.5199 62.4887 86.6477C62.7203 86.5691 62.9486 86.469 63.185 86.423C63.775 86.3024 64.3667 86.1926 64.9692 86.0813C65.0465 86.6777 65.2043 87.2955 65.1594 87.8879C65.1273 88.2685 64.8201 88.6567 64.5448 88.9627C62.4453 91.429 58.6618 92.0778 56.5917 87.6537L56.5825 87.6661ZM77.4551 81.8004C79.3328 87.9109 88.4663 92.6373 94.2452 90.6098C95.2747 90.2473 96.1849 89.5267 97.1423 88.9759C97.0858 88.8185 97.0277 88.6503 96.9604 88.4945C95.5408 88.4616 93.8804 87.9226 92.7359 88.479C89.395 90.1012 86.5372 89.1649 83.891 87.2689C81.6671 85.6861 79.7087 83.7325 77.4551 81.8004ZM103.21 116.66C103.873 116.805 104.671 116.975 105.459 117.145C106.082 115.307 105.68 113.786 104.376 112.663C103.995 112.333 103.056 112.638 102.483 112.645C102.737 114.067 102.945 115.241 103.21 116.66ZM43.0688 99.8585C44.2433 98.8335 45.3963 97.8116 46.8833 96.5082C45.3591 96.5902 44.3171 96.6451 43.232 96.7064C43.1758 97.82 43.1269 98.833 43.0688 99.8585Z" fill="#201E1D"></path>
<path d="M47.2497 99.8036C49.3765 96.9243 51.4095 94.1584 53.4887 91.3304C55.3004 93.339 57.5436 94.7531 60.445 94.865C64.8699 95.0386 69.143 91.576 69.9359 87.3027C70.0549 86.6882 70.7375 85.9239 71.3332 85.6919C73.7484 84.7595 76.3521 85.6229 78.1895 87.5061C82.4207 91.8201 87.4427 94.4585 93.6258 93.1448C95.694 92.7058 97.4963 91.0684 99.4251 89.9869C99.9046 89.7169 100.393 89.2799 100.887 89.2619C112.733 88.7897 123.441 84.6725 133.683 79.0439C134.009 78.8629 134.293 78.6108 134.618 78.419C134.892 78.2567 135.182 78.1254 135.952 77.7241C135.135 80.0446 134.553 82.0097 133.748 83.8864C130.785 90.7471 126.544 96.6697 120.593 101.265C116.019 104.783 110.829 107.21 105.443 109.124C99.0173 111.413 92.4329 113.151 85.5397 113.177C78.9897 113.207 72.6157 112.261 66.6551 109.331C64.8305 108.43 63.3288 107.171 62.2989 105.367C61.8808 104.633 61.8131 104.102 62.4232 103.37C63.6819 101.868 64.6225 100.16 64.5084 98.1207C64.4812 97.6384 63.9176 97.1913 63.5952 96.7306C63.2723 97.0879 62.7543 97.3967 62.6513 97.8209C61.6153 101.721 58.6825 103.935 54.6374 103.937C51.3563 103.948 48.8435 102.729 47.2621 99.8128L47.2497 99.8036Z" fill="#FFB3DB"></path>
<path d="M78.4579 78.9438C78.5324 78.4022 78.4964 78.0095 78.637 77.6903C80.4942 73.215 77.0097 69.4647 73.5551 68.2299C70.2988 67.0653 69.5594 65.8042 70.4368 62.3252C71.9581 56.2528 75.0544 50.9641 78.7351 45.9646C81.7264 41.9072 85.4932 38.6081 89.4174 35.551C92.6486 33.0387 96.1847 30.8681 99.7383 28.8165C103.048 26.9114 106.568 25.3733 110.007 23.6701C110.19 23.7867 110.362 23.9049 110.545 24.0215C110.346 25.2889 110.347 26.6373 109.902 27.8085C107.7 33.6169 103.748 37.8276 98.0722 40.4035C96.5604 41.0917 96.5468 41.7458 97.5001 43.1079C97.9207 43.7087 98.1394 44.7375 97.9435 45.4297C96.6987 49.9358 93.8877 52.9717 89.2958 54.2818C88.6164 54.4709 87.5035 55.1663 87.5516 55.4908C87.6653 56.2587 88.1941 57.142 88.8198 57.6352C90.7481 59.1623 91.9033 60.9917 91.6797 63.5118C91.2304 68.7622 87.4383 73.4577 82.7431 74.5179C82.272 74.6208 81.7788 75.2464 81.5665 75.7532C80.9584 77.1696 80.1572 78.3273 78.4763 78.9189L78.4579 78.9438ZM85.8129 69.1998C88.4104 66.7371 89.0586 64.3973 87.7877 61.7118C86.9702 59.9981 85.7035 59.3567 83.8672 59.7944C81.0379 60.4677 78.9857 62.2086 77.7866 64.7848C77.0832 66.3037 76.8507 68.0182 78.1786 69.4464C79.6247 71.0007 81.3852 71.4694 83.1826 70.6947C84.0976 70.305 84.9264 69.7069 85.8005 69.1906L85.8129 69.1998Z" fill="#FFB3DB"></path>
<path d="M88.2925 150.05C84.7954 151.364 81.3917 151.591 77.9523 151.504C72.4963 151.384 67.2996 150.252 62.6638 147.236C58.2731 144.383 54.2285 141.179 54.2211 135.234C54.2209 132.172 55.1171 129.342 57.5671 127.377C60.6485 124.898 63.9494 122.707 67.0432 120.237C68.8234 118.824 70.3561 117.082 72.0554 115.571C72.4464 115.225 73.1146 114.961 73.6297 115.006C76.3493 115.233 79.074 115.57 81.9161 115.879C82.5918 118.277 81.4994 120.229 80.1417 122.033C77.0303 126.174 72.9719 128.699 67.7166 129.112C66.8201 129.179 65.8899 129.316 65.0519 129.629C64.4454 129.862 63.9675 130.441 63.4331 130.863C64.0396 131.226 64.6156 131.683 65.2693 131.917C66.9145 132.503 68.7772 132.691 70.2229 133.571C72.5526 134.973 73.999 137.201 74.2161 140.01C74.3053 141.135 74.1595 142.24 73.0919 143.017C72.7622 143.253 72.3796 144.029 72.501 144.176C72.8263 144.581 73.3867 145.007 73.8878 145.032C78.4476 145.296 82.4642 147.266 86.5721 148.956C87.102 149.176 87.5695 149.571 88.3018 150.037L88.2925 150.05ZM60.8826 141.553C62.3451 142.398 63.6009 143.339 65.0185 143.881C67.2946 144.771 69.5091 143.006 70.0055 140.611C70.5985 137.749 66.4578 134.195 63.5031 134.246C61.0555 134.288 59.5188 135.555 59.7166 137.935C59.8187 139.147 60.4664 140.311 60.8826 141.553Z" fill="#FFB3DB"></path>
<path d="M25.0107 80.0276C28.3203 79.8358 31.358 79.6733 34.4032 79.4876C36.8672 79.3326 39.3184 79.0912 41.7747 78.9595C43.7056 78.8614 43.8165 79.0882 43.4811 80.9284C43.3069 81.9159 43.3801 82.9328 43.3432 83.8778C39.1787 85.3125 35.8245 87.6663 32.9663 90.8308C31.9407 91.9664 32.0929 92.9939 33.2682 93.6157C34.9955 94.5315 36.8578 95.2394 38.7197 95.87C39.9651 96.2934 40.9248 96.5049 40.6247 98.2847C40.1371 101.187 40.0116 104.145 39.6153 107.067C39.5633 107.461 38.8193 108.036 38.3787 108.046C33.0854 108.277 27.7901 108.42 22.1346 108.595C23.0937 106.562 23.8581 104.858 24.703 103.174C26.4004 99.7836 28.2156 96.442 29.8044 92.9902C30.1393 92.2664 29.8549 91.0927 29.5121 90.2702C28.131 86.9157 26.6033 83.6161 25.0231 80.0368L25.0107 80.0276Z" fill="#FFB3DB"></path>
<path d="M45.5472 83.0107C48.8338 85.5745 51.8695 84.7271 54.8111 82.7219C57.8712 80.6218 61.1764 79.5796 64.9259 79.8201C67.492 79.9816 70.0958 79.9496 72.2217 78.1094C72.5743 77.8029 73.0305 77.5253 73.194 77.1364C73.4171 76.6281 73.4047 76.022 73.4961 75.4447C72.9116 75.4539 72.2475 75.2982 71.7492 75.5157C69.6957 76.4277 67.3047 76.0302 66.0213 74.5292C65.1004 73.4608 65.5026 72.5943 66.4239 71.9494C68.7057 70.3404 74.2325 71.014 76.0892 73.027C77.3533 74.3982 76.8866 76.5453 75.8975 78.4492C74.7369 80.6881 72.4736 81.377 70.2187 81.8988C69.1824 82.1408 68.0776 82.2933 67.024 82.1951C62.5623 81.7727 58.7968 83.5132 55.0797 85.6553C52.4927 87.1438 49.7679 88.2989 46.9387 85.9879C46.0085 85.2303 45.4554 84.4059 45.5455 82.9999L45.5472 83.0107Z" fill="#FFB3DB"></path>
<path d="M100.507 43.4799C100.331 43.0417 100.159 42.6251 99.9695 42.1668C102.971 40.418 105.708 38.5205 107.784 35.7481C108.484 34.8044 109.655 34.1999 110.645 33.5006C114.892 30.5284 119.196 27.6472 123.386 24.5949C126.967 21.9864 130.552 19.3223 133.865 16.3889C135.194 15.2193 136.374 14.5251 138.499 14.542C127.192 26.3411 113.971 34.9865 100.503 43.4583L100.507 43.4799Z" fill="#FFB3DB"></path>
<path d="M125.506 30.0295C125.088 31.3181 124.828 32.6941 124.233 33.8986C122.179 38.0934 119.212 41.6389 115.459 44.3611C109.81 48.4585 103.994 52.3263 98.2045 56.2234C96.6666 57.258 94.9541 58.009 93.2239 58.9395C92.8562 58.3971 92.571 57.9641 92.2189 57.4525C93.5813 56.5765 94.8324 55.6948 96.1583 54.9458C101.391 51.9933 106.207 48.4616 110.812 44.6294C113.291 42.56 115.779 40.4783 118.062 38.2059C119.208 37.0635 120.034 35.5486 120.792 34.0989C121.619 32.5174 123.253 30.7168 125.496 30.0419L125.506 30.0295Z" fill="#FFB3DB"></path>
<path d="M81.6033 79.6601C82.0816 79.755 82.6027 79.7663 83.0213 79.9806C87.6163 82.2733 92.5138 83.2501 97.5956 83.3817C100.947 83.4712 104.023 82.4518 106.88 80.7687C108.822 79.6299 109.626 77.7424 109.24 75.4342C109.065 74.3991 110.863 71.7673 111.801 71.982C112.419 72.1227 113.264 73.125 113.267 73.7435C113.251 76.5424 112.887 79.2379 110.58 81.3481C103.988 87.3646 96.4991 86.9485 88.7871 84.4321C86.5924 83.7182 84.6228 82.2856 82.5758 81.1519C82.1416 80.9067 81.8023 80.4817 81.4202 80.1404C81.4859 79.987 81.55 79.8227 81.6157 79.6693L81.6033 79.6601Z" fill="#FFB3DB"></path>
<path d="M124.856 125.568C123.569 126.808 122.426 128.271 120.967 129.239C119.739 130.05 118.107 130.226 116.703 130.821C111.55 133.043 106.378 135.213 101.304 137.6C96.6239 139.807 92.072 142.283 87.4264 144.574C85.8809 145.333 84.2389 146.56 82.2505 144.478C96.1317 137.305 110.299 131.095 124.566 125.102C124.665 125.253 124.765 125.404 124.854 125.557L124.856 125.568Z" fill="#FFB3DB"></path>
<path d="M76.0945 137.542C75.8898 137.131 75.7008 136.75 75.5333 136.365C75.4989 136.282 75.5137 136.158 75.4853 135.743C76.8441 135.066 78.253 134.205 79.7732 133.648C86.1241 131.304 92.4182 128.725 98.9217 126.889C103.186 125.682 107.764 125.546 112.217 125.085C113.197 124.984 114.236 125.582 115.246 126.062C113.722 126.819 112.53 127.725 110.499 127.517C107.929 127.257 105.202 127.948 102.613 128.53C94.0845 130.423 85.9578 133.539 77.9252 136.917C77.3435 137.169 76.715 137.329 76.0821 137.533L76.0945 137.542Z" fill="#FFB3DB"></path>
<path d="M85.1144 76.5762C86.9552 74.303 89.3851 75.3357 91.525 75.0077C96.8648 74.1947 102.058 72.9171 106.411 69.5423C107.908 68.3811 109.296 66.8601 109.397 64.7783C109.46 63.4868 109.955 62.728 111.035 62.104C111.789 61.6718 112.391 60.9637 113.056 60.3788C113.233 60.4522 113.408 60.5147 113.584 60.588C113.597 61.2714 113.725 61.982 113.614 62.6506C112.716 67.7131 109.69 71.1567 105.23 73.5084C99.2834 76.6439 92.8925 77.2258 86.3422 76.8806C85.9416 76.8626 85.5402 76.6899 85.1176 76.5977L85.1144 76.5762Z" fill="#FFB3DB"></path>
<path d="M93.7003 67.4568C93.5281 66.1449 94.1351 65.6904 95.1674 65.2722C100.508 63.1217 105.608 60.4652 109.566 56.2204C111.302 54.3605 112.221 51.7596 113.723 49.6582C114.758 48.2117 116.154 47.0432 117.574 45.8824C117.695 49.313 116.504 52.3189 114.588 54.8244C109.441 61.5665 102.608 65.806 94.2259 67.4233C94.0637 67.4473 93.909 67.448 93.6911 67.4693L93.7003 67.4568Z" fill="#FFB3DB"></path>
<path d="M44.1288 85.8952C45.7326 88.6641 48.2394 89.3207 50.8885 89.6689C50.9954 91.51 49.1105 93.635 46.9554 94.0095C42.8706 94.714 39.0295 93.7797 34.9448 92.0967C37.5475 89.1469 40.6433 87.362 44.1288 85.8952ZM48.056 89.7237C47.1286 89.5074 46.3135 89.1529 45.5111 89.1833C44.9839 89.2061 44.1098 89.7223 44.0485 90.1293C43.954 90.6849 44.3004 91.6064 44.7659 91.9132C46.1655 92.8554 47.4678 92.0214 48.056 89.7237Z" fill="#FFB3DB"></path>
<path d="M110.56 122.479C108.86 122.642 107.653 122.777 106.438 122.858C106.153 122.878 105.765 122.791 105.592 122.596C103.919 120.777 101.647 121.036 99.5784 121.022C93.28 120.96 87.3057 122.563 81.5304 124.988C81.3021 125.088 81.0657 125.134 80.4961 125.318C81.8153 123.553 82.5808 121.782 84.6655 121.23C90.3001 119.721 95.9572 118.065 101.865 118.848C104.301 119.173 106.64 120.263 108.994 121.086C109.484 121.257 109.842 121.812 110.569 122.467L110.56 122.479Z" fill="#FFB3DB"></path>
<path d="M20.7395 104.624C21.7533 97.588 22.7794 90.561 23.7932 83.5248L24.2799 83.4527C25.4367 86.1883 26.5951 88.9348 27.7226 91.6969C27.8071 91.8944 27.7005 92.2195 27.5888 92.435C25.5164 96.5774 23.43 100.7 21.3452 104.833C21.1361 104.764 20.9378 104.694 20.7271 104.615L20.7395 104.624Z" fill="#FFB3DB"></path>
<path d="M131.382 77.7688C125.875 80.0655 120.626 82.6114 114.569 80.4469C114.92 78.8586 115.233 77.4637 115.575 75.9651C120.736 76.5602 125.93 77.1505 131.384 77.7796L131.382 77.7688Z" fill="#FFB3DB"></path>
<path d="M56.5945 87.6742C58.6645 92.0983 62.4497 91.4603 64.5476 88.9832C64.8104 88.6679 65.1177 88.2797 65.1621 87.9084C65.2178 87.3143 65.0508 86.709 64.9719 86.1017C64.3803 86.2115 63.7762 86.3121 63.1877 86.4434C62.9514 86.4895 62.7231 86.5896 62.4915 86.6681C62.395 86.5387 62.2968 86.3985 62.1895 86.2707C62.9626 85.6699 63.6557 84.8266 64.5294 84.5315C65.4355 84.2314 66.7206 84.2512 67.1303 85.4505C67.4175 86.2701 67.5468 87.3673 67.2416 88.142C65.5429 92.4943 59.6912 93.8805 56.0852 90.8776C54.4577 89.5159 54.5643 88.5938 56.5853 87.6866L56.5945 87.6742Z" fill="#FFB3DB"></path>
<path d="M77.478 81.8079C79.7316 83.74 81.6884 85.6828 83.914 87.2764C86.571 89.1708 89.4179 90.1087 92.7588 88.4865C93.8925 87.9317 95.5529 88.4705 96.9833 88.5018C97.0398 88.6593 97.0979 88.8276 97.1652 88.9834C96.197 89.5358 95.2976 90.2548 94.2681 90.6173C88.4892 92.6448 79.3665 87.9168 77.478 81.8079Z" fill="#FFB3DB"></path>
<path d="M103.235 116.679C102.978 115.247 102.773 114.084 102.507 112.664C103.081 112.656 104.007 112.342 104.4 112.682C105.705 113.804 106.107 115.325 105.484 117.164C104.696 116.993 103.897 116.824 103.235 116.679Z" fill="#FFB3DB"></path>
<path d="M43.0935 99.8763C43.1424 98.8632 43.2005 97.8377 43.2566 96.7241C44.3418 96.6629 45.3837 96.608 46.9079 96.5259C45.4209 97.8293 44.2664 98.8404 43.0935 99.8763Z" fill="#FFB3DB"></path>
<path d="M85.8139 69.211C84.949 69.7149 84.1202 70.3129 83.1961 70.7151C81.3878 71.4914 79.6272 71.0226 78.192 69.4666C76.8641 68.0385 77.0966 66.3241 77.8 64.8052C78.9975 62.2182 81.0513 60.4881 83.8807 59.8148C85.7169 59.3771 86.9836 60.0185 87.8011 61.7322C89.072 64.4177 88.4238 66.7575 85.8263 69.2202L85.8139 69.211Z" fill="#201E1D"></path>
<path d="M60.8828 141.553C60.4667 140.311 59.819 139.147 59.7169 137.935C59.5191 135.555 61.0558 134.288 63.5033 134.246C66.4472 134.197 70.5987 137.749 70.0057 140.611C69.5093 143.006 67.2948 144.771 65.0188 143.881C63.6103 143.327 62.3437 142.387 60.8828 141.553Z" fill="#201E1D"></path>
<path d="M48.0666 89.7222C47.4785 92.0199 46.1762 92.8539 44.7766 91.9117C44.3111 91.6048 43.9646 90.6834 44.0592 90.1278C44.1205 89.7208 44.9946 89.2046 45.5217 89.1817C46.3241 89.1513 47.1393 89.5058 48.0666 89.7222Z" fill="#201E1D"></path>
</svg>