
         <svg width="3491" height="90" viewBox="0 0 3491 69" fill="none" xmlns="http://www.w3.org/2000/svg">
<path d="M3434.08 54.1022L3486.94 17.2433C3489.49 15.4719 3491 12.5701 3491 9.4727C3491 4.24107 3486.76 0 3481.53 0L9.47266 0C4.24097 0 0 4.24107 0 9.47269C0 12.5701 1.5144 15.4719 4.05518 17.2433L56.9241 54.1023C84.415 73.2684 120.938 73.2683 148.429 54.1022L159.6 46.3139C187.091 27.1478 223.615 27.1478 251.106 46.3138L262.277 54.1024C289.768 73.2684 326.292 73.2684 353.782 54.1024L364.954 46.3139C392.445 27.1478 428.968 27.1479 456.459 46.3141L467.63 54.102C495.121 73.2682 531.644 73.2683 559.135 54.1021L570.306 46.3139C597.797 27.1478 634.321 27.1478 661.812 46.3139L672.983 54.1023C700.474 73.2684 736.997 73.2684 764.488 54.1023L775.659 46.3138C803.15 27.1478 839.674 27.1478 867.165 46.314L878.336 54.1022C905.827 73.2683 942.35 73.2683 969.841 54.1022L981.012 46.3139C1008.5 27.1478 1045.03 27.1478 1072.52 46.3139L1083.69 54.1022C1111.18 73.2683 1147.7 73.2683 1175.19 54.1021L1186.36 46.314C1213.86 27.1478 1250.38 27.1478 1277.87 46.3139L1289.04 54.1022C1316.53 73.2683 1353.06 73.2683 1380.55 54.1022L1391.72 46.3139C1419.21 27.1478 1455.73 27.1478 1483.22 46.3139L1494.39 54.1022C1521.89 73.2683 1558.41 73.2684 1585.9 54.1022L1597.07 46.314C1624.56 27.1478 1661.09 27.1478 1688.58 46.3139L1699.75 54.1022C1727.24 73.2683 1763.76 73.2683 1791.25 54.1022L1802.42 46.3139C1829.91 27.1478 1866.44 27.1477 1893.93 46.3138L1905.1 54.1023C1932.59 73.2684 1969.11 73.2683 1996.61 54.1022L2007.78 46.314C2035.27 27.1478 2071.79 27.1478 2099.28 46.3139L2110.45 54.1023C2137.94 73.2684 2174.47 73.2684 2201.96 54.1022L2213.13 46.314C2240.62 27.1478 2277.14 27.1478 2304.64 46.3139L2315.81 54.1022C2343.3 73.2683 2379.82 73.2683 2407.31 54.1022L2418.48 46.3139C2445.97 27.1478 2482.5 27.1478 2509.99 46.3139L2521.16 54.1022C2548.65 73.2683 2585.17 73.2683 2612.66 54.1022L2623.84 46.3139C2651.33 27.1478 2687.85 27.1478 2715.34 46.3139L2726.51 54.1022C2754 73.2683 2790.53 73.2683 2818.02 54.1022L2829.19 46.3139C2856.68 27.1478 2893.2 27.1478 2920.69 46.3139L2931.87 54.1022C2959.36 73.2683 2995.88 73.2683 3023.37 54.1022L3034.54 46.3139C3062.03 27.1478 3098.56 27.1478 3126.05 46.3139L3137.22 54.1022C3164.71 73.2683 3201.23 73.2683 3228.72 54.1022L3239.89 46.3139C3267.39 27.1478 3303.91 27.1478 3331.4 46.3139L3342.57 54.1022C3370.06 73.2683 3406.59 73.2683 3434.08 54.1022Z" fill="#04894b"></path>
</svg>
    